<?xml version="1.0" encoding="UTF-8"?>
<svg id="Car" xmlns="http://www.w3.org/2000/svg" viewBox="0 0 629.82 230.63">
  <defs>
    <style>
      .cls-1 {
        fill: #fff;
      }

      .cls-1, .cls-2, .cls-3, .cls-4, .cls-5, .cls-6 {
        stroke: #263238;
        stroke-miterlimit: 10;
      }

      .cls-2 {
        fill: #263238;
      }

      .cls-7 {
        opacity: .24;
      }

      .cls-3 {
        fill: #92e3a9;
      }

      .cls-4 {
        fill: #969696;
      }

      .cls-5 {
        fill: none;
      }

      .cls-6 {
        fill: #525252;
      }
    </style>
  </defs>
  <path class="cls-2" d="M622.9,188.04s-13.73,9.15-14.95,9.46-16.17,0-16.17,0v-4.27s-130.55-6.71-130.55-6.71l-389.51-4.88s-.61-22.27,9.76-39.96c10.37-17.69,29.28-31.11,50.02-32.94,20.74-1.83,46.06,4.58,58.56,15.56,12.51,10.98,24.1,53.99,24.1,53.99l239.44,3.05s6.41-34.47,28.98-53.07c22.57-18.61,54.29-22.88,82.36-14.34,28.06,8.54,36.3,63.44,36.3,63.44l21.66,10.68Z"/>
  <path class="cls-3" d="M6.32,126.33c4.16-8.32,4.99-23.29,4.99-29.11s-.83-13.72-.83-13.72c0,0-4.16-5.82,0-13.72,4.16-7.9,8.32-8.73,8.32-8.73L52.89,24.87s-10.4-6.24-9.56-7.9c.83-1.66,3.74-1.66,3.74-1.66l49.9-2.91s76.51-2.91,117.26-3.74c40.75-.83,121-1.66,121-1.66,0,0,9.15,.42,16.22,2.91,7.07,2.49,109.78,58.21,116.01,60.29,6.24,2.08,88.15,5.41,105.62,8.32,17.46,2.91,34.93,9.98,39.09,14.97,4.16,4.99,14.97,43.24,15.8,48.65,.83,5.41,1.66,38.26,1.25,41.58-.42,3.33-4.16,4.99-4.16,4.99h-30.77s-.44-2.19-1.26-5.71c.05-1.07,.08-2.15,.08-3.24,0-35.46-28.74-64.2-64.2-64.2s-64.2,28.74-64.2,64.2c0,3.25,.25,6.45,.71,9.57-.02,.13-.04,.21-.04,.21H206.74s-.54-3.84-1.88-9.66c0-.04,0-.08,0-.12,0-35.7-28.94-64.65-64.65-64.65-35.7,0-64.65,28.94-64.65,64.65,0,1.33,.05,2.64,.13,3.95-6.46-.09-35.76-.84-52.34-7.47C4.66,168.74,.5,162.92,.5,151.28s1.66-16.63,5.82-24.95Z"/>
  <path class="cls-7" d="M498.09,100.07s-154.11-6.94-239.49-12.5c-85.38-5.55-115.93-7.64-115.93-7.64l338.06,24.3,17.35-4.16Z"/>
  <path class="cls-6" d="M.52,149.45c0-.2,0-.39,.01-.58,0-.21,.01-.4,.02-.6,0-.19,.01-.39,.02-.58,.01-.31,.02-.61,.04-.91,.01-.28,.03-.56,.05-.83,0-.07,0-.14,.01-.2,.02-.32,.04-.64,.07-.95,.01-.13,.02-.26,.03-.39,.1-1.11,.22-2.17,.37-3.17,6.32,1.79,23.25,5.64,26.06,5.64,3.36,0,14.95,8.24,16.47,9.15,1.33,.8,17.17,1.82,21.29,2.08,4.65-16.19,14.37-30.22,27.35-40.27,2.29-1.92,4.68-3.66,7.18-5.11,.93-.54,1.98-1.1,3.13-1.67,11.16-6.12,23.98-9.61,37.61-9.61,38.74,0,70.9,28.13,77.2,65.08l8.34,.49s11.9-3.97,17.08-5.19c5.19-1.22,161.36,4.27,168.68,4.27,7.32,0,32.03,6.41,32.03,6.41l11.3-.57c3.92-37.44,35.58-66.63,74.06-66.63,36.6,0,67.02,26.42,73.27,61.22,1.66,5.42,2.42,9.02,2.42,9.02h18.61s5.68-17.31,5.68-17.31c0,0,0,0,0,0,0,0,0,0,0,0,0,.25,.02,.5,.03,.75,0,.02,0,.03,0,.05,0,.22,.01,.44,.02,.67,.01,.33,.02,.67,.03,1.01,0,.28,.02,.56,.03,.84,0,.25,.02,.5,.02,.75,0,.33,.02,.67,.03,1,0,.31,.02,.62,.03,.93,0,.25,.01,.49,.02,.74,0,.29,.02,.58,.02,.87,0,.1,0,.2,0,.29,0,.23,.01,.46,.02,.69,0,.21,.01,.42,.02,.64,0,.41,.02,.83,.03,1.23,0,.16,0,.32,.01,.48,0,.28,.01,.56,.02,.84,0,.07,0,.14,0,.21,0,.19,0,.37,.01,.56,0,.36,.01,.72,.02,1.08,0,.16,0,.33,0,.49,0,.41,.01,.82,.02,1.21,0,.13,0,.25,0,.38,0,.36,0,.71,.01,1.05,0,.11,0,.22,0,.33,0,.37,0,.72,.01,1.07,0,.11,0,.22,0,.33,0,.16,0,.3,0,.46,0,.21,0,.43,0,.64,0,.08,0,.15,0,.22,0,.09,0,.18,0,.27,0,.27,0,.53,0,.78,0,.01,0,.03,0,.04,0,.19,0,.36,0,.55,0,.14,0,.29,0,.43,0,.07,0,.14,0,.21,0,.12,0,.22,0,.34,0,.17,0,.35,0,.51,0,.05,0,.1,0,.15,0,.27,0,.53-.01,.76,0,0,0,0,0,0,0,.23-.01,.44-.02,.64,0,.04,0,.07,0,.11,0,.18-.02,.34-.02,.49,0,.03,0,.05,0,.07,0,.14-.02,.26-.03,.36-.42,3.33-4.16,4.99-4.16,4.99h-22.23s-8.54,0-8.54,0c0,0-.44-2.19-1.26-5.71,.05-1.07,.08-2.15,.08-3.24,0-35.46-28.74-64.2-64.2-64.2s-64.2,28.74-64.2,64.2c0,3.25,.25,6.45,.71,9.57-.02,.13-.04,.21-.04,.21h-10.29s-237.17,0-237.17,0h-11.18s-.54-3.84-1.88-9.66c0-.04,0-.08,0-.12,0-35.7-28.94-64.65-64.65-64.65-35.7,0-64.65,28.94-64.65,64.65,0,1.33,.05,2.64,.13,3.95-2.27-.03-7.37-.14-13.73-.57h0c-.69-.05-1.4-.1-2.12-.15-.08,0-.16-.01-.24-.02-1.49-.11-3.04-.24-4.63-.39-.02,0-.05,0-.07,0-.72-.07-1.46-.14-2.2-.22-.16-.02-.32-.03-.48-.05-.65-.07-1.3-.14-1.95-.22-.15-.02-.3-.03-.45-.05-1.57-.18-3.15-.39-4.74-.61-.21-.03-.42-.06-.63-.09-.59-.09-1.17-.17-1.76-.27-.23-.04-.46-.07-.68-.11-.67-.11-1.34-.22-2.01-.34-.11-.02-.22-.04-.33-.06-.77-.14-1.53-.28-2.29-.43-.2-.04-.4-.08-.61-.12-.56-.11-1.12-.23-1.67-.35-.25-.05-.49-.11-.73-.16-.55-.12-1.1-.25-1.65-.38-.19-.05-.39-.09-.58-.14-.72-.18-1.43-.36-2.14-.56-.14-.04-.28-.08-.42-.12-.56-.16-1.12-.32-1.66-.49-.22-.07-.44-.14-.65-.2-.48-.15-.96-.31-1.42-.47-.2-.07-.4-.14-.59-.2-.64-.23-1.28-.46-1.89-.71C4.66,168.74,.5,162.92,.5,151.28c0-.63,0-1.24,.02-1.83Z"/>
  <path class="cls-2" d="M367.66,18.64h1.24c31.41,16.37,93.74,49.96,98.56,51.56,1.12,.37,4.66,.78,9.82,1.23-6.86,4.72-20.37,7.09-26.03,7.09s-269.45-11.23-269.45-11.23c0,0-8.73-6.65-8.73-8.73s34.1-39.92,34.1-39.92h160.5Z"/>
  <path class="cls-6" d="M371.25,19.86c32.06,16.76,91.51,48.77,96.21,50.34,1.12,.37,4.66,.78,9.82,1.23-3.91,2.69-9.97,4.61-15.51,5.77l-94.1-58.56,3.58,1.22Z"/>
  <path class="cls-6" d="M351.45,22.79s67.78,40.33,70.69,42.83,1.66,4.99-.83,5.82-108.53-2.49-108.53-2.49l-7.07-45.74,45.74-.42Z"/>
  <polygon class="cls-6" points="284.92 24.04 286.16 66.87 197.6 64.79 191.36 48.99 210.9 22.79 284.92 24.04"/>
  <path class="cls-6" d="M406.71,55.37s1.3,.78,7,2.33c5.71,1.56,12.97,4.67,13.75,8.3s.52,8.56-3.11,9.08-22.05,1.82-27.5-.78c-5.45-2.59-4.67-7.78-3.89-12.19s3.37-5.71,6.48-6.48,7.26-.26,7.26-.26Z"/>
  <ellipse class="cls-5" cx="334.73" cy="84.68" rx="12.32" ry="3.37"/>
  <ellipse class="cls-5" cx="187.65" cy="79.24" rx="12.32" ry="3.37"/>
  <path class="cls-5" d="M164.33,50.62c-6.12,6.81-10.67,12.57-10.86,14.8-.61,7.02,5.19,37.21,5.19,37.21"/>
  <path class="cls-5" d="M197.7,16.62s-15.74,15.08-28.44,28.65"/>
  <path class="cls-5" d="M69.35,110.91c-9.35-6.69-25.99-19.56-25.99-19.56"/>
  <path class="cls-5" d="M89.72,116.66s-11.9-1.22-14.34-1.83c-.44-.11-1.75-.93-3.6-2.22"/>
  <line class="cls-5" x1="302.96" y1="153.58" x2="303.54" y2="183.16"/>
  <line class="cls-5" x1="301.67" y1="88.72" x2="302.86" y2="149"/>
  <line class="cls-5" x1="301.41" y1="75.18" x2="301.59" y2="84.52"/>
  <line class="cls-5" x1="218.44" y1="169.74" x2="442.33" y2="176.14"/>
  <path class="cls-5" d="M452.76,101.36c-1.65,22.82-6.47,85.16-6.47,85.16"/>
  <path class="cls-5" d="M450.87,80.98s2.44,9.46,2.44,12.2c0,.29-.08,1.55-.22,3.57"/>
  <path class="cls-2" d="M612.54,94c3.25,4.91,9.66,25.93,13.13,38.72-3.27-5.61-10.19-16.99-14.05-19.72-5.19-3.66-44.23-10.68-47.58-11.9-3.36-1.22-9.46-8.24-10.37-10.98-.78-2.35,45.41,2.43,58.88,3.88Z"/>
  <path class="cls-1" d="M553.66,90.13c-.78-2.35,45.41,2.43,58.88,3.88,0,0,5.17,15.65-.93,19-5.19-3.66-44.23-10.68-47.58-11.9-3.36-1.22-9.46-8.24-10.37-10.98Z"/>
  <path class="cls-2" d="M613.75,131.92l-.92,22.57h4.27s11.94-21.27,8.56-21.77-11.92-.8-11.92-.8Z"/>
  <path class="cls-2" d="M171.77,22.41s-61.61,41.79-64.66,41.79-88.31-3.15-88.31-3.15L52.89,24.87l118.88-2.46Z"/>
  <path class="cls-6" d="M149.81,29.43s-36.91,29.28-43.31,30.2c-6.41,.92-43.62-1.22-43.62-1.22,0,0,22.27-26.54,25.01-27.15,2.75-.61,61.92-1.83,61.92-1.83Z"/>
  <path class="cls-4" d="M16.51,73.05s47.28,1.53,47.28,2.75-4.88,7.32-8.24,8.85c-3.36,1.53-8.54,.91-9.46,1.83-.92,.92-14.03,14.64-16.47,16.47-2.44,1.83-9.76,4.58-10.98,4.58,0,0-2.75-32.94-2.14-34.47Z"/>
  <g>
    <circle class="cls-2" cx="528.91" cy="179.76" r="50.38"/>
    <path class="cls-1" d="M491.55,179.76c0,20.63,16.72,37.35,37.35,37.35s37.35-16.72,37.35-37.35-16.72-37.35-37.35-37.35-37.35,16.72-37.35,37.35Zm18.37-25.73l13.48,22.1-24.73-6.78c2.13-6.18,6.09-11.51,11.25-15.32Zm22.03,31.96l18.01,17.83c-4.73,4.15-10.7,6.92-17.27,7.69l-.74-25.52Zm-8.84,25.21c-6.47-1.19-12.26-4.31-16.74-8.76l19.57-16.34-2.83,25.1Zm5.8-63.42c2.95,0,5.81,.41,8.52,1.16l-8.57,23.09-8.21-23.16c2.64-.7,5.4-1.08,8.26-1.08Zm29.54,19.71l-23.46,7.55,13.14-20.85c4.53,3.41,8.12,7.99,10.32,13.29Zm2.44,12.27c0,6.13-1.73,11.86-4.72,16.73l-19.86-14.75,24.57-2.58c0,.2,.02,.4,.02,.6Zm-63.95,0c0-.33,.01-.65,.02-.98l24.48,3.11-20.78,12.86c-2.38-4.47-3.73-9.57-3.73-14.99Z"/>
    <circle class="cls-1" cx="528.9" cy="179.76" r="9.88"/>
  </g>
  <g>
    <circle class="cls-2" cx="140.22" cy="179.76" r="50.38"/>
    <path class="cls-1" d="M102.87,179.76c0,20.63,16.72,37.35,37.35,37.35s37.35-16.72,37.35-37.35-16.72-37.35-37.35-37.35-37.35,16.72-37.35,37.35Zm18.37-25.73l13.48,22.1-24.73-6.78c2.13-6.18,6.09-11.51,11.25-15.32Zm22.03,31.96l18.01,17.83c-4.73,4.15-10.7,6.92-17.27,7.69l-.74-25.52Zm-8.84,25.21c-6.47-1.19-12.26-4.31-16.74-8.76l19.57-16.34-2.83,25.1Zm5.8-63.42c2.95,0,5.81,.41,8.52,1.16l-8.57,23.09-8.21-23.16c2.64-.7,5.4-1.08,8.26-1.08Zm29.54,19.71l-23.46,7.55,13.14-20.85c4.53,3.41,8.12,7.99,10.32,13.29Zm2.44,12.27c0,6.13-1.73,11.86-4.72,16.73l-19.86-14.75,24.57-2.58c0,.2,.02,.4,.02,.6Zm-63.95,0c0-.33,.01-.65,.02-.98l24.48,3.11-20.78,12.86c-2.38-4.47-3.73-9.57-3.73-14.99Z"/>
    <circle class="cls-1" cx="140.22" cy="179.76" r="9.88"/>
  </g>
  <path class="cls-2" d="M326.9,6.92s-13.97-3.97-20.59-5.23c-6.62-1.26-102.08-1.89-141.14,0-39.07,1.89-55.13,5.36-58.6,6.3-3.47,.95-9.6,4.4-9.6,4.4l30.75-1.37s-.99-3.03,1.53-3.35c2.52-.32,65.53-1.89,68.37-1.89s2.94,3,2.94,3l13.67-.13,5.13-3.5s76.56-.63,78.45,.32c1.89,.95,1.68,1.6,1.68,1.6l27.41-.15Z"/>
</svg>