<?xml version="1.0" encoding="UTF-8"?>
<svg id="Layer_1" fill="#fff" data-name="Layer 1" xmlns="http://www.w3.org/2000/svg" viewBox="0 0 624.51 197.84">
  <defs>
    <style>
      .cls-1 {
        fill: #000;
      }

      .cls-2 {
        fill: #1cab69;
      }

   

    </style>
  </defs>
  <path class="cls-2" d="M583.48,172.7H236.67c-7.42,0-13.08-6.82-11.93-14.36l24.79-121.35c.93-6.04,5.98-10.49,11.93-10.49h346.81c7.42,0,13.08,6.82,11.93,14.36l-24.79,121.35c-.93,6.04-5.98,10.49-11.93,10.49Z"/>
  <g>
    <path class="cls-1" d="M270.66,56.96h37.95c4.84,0,8.77,.7,11.77,2.08,3,1.39,5.27,3.23,6.8,5.52,1.52,2.29,2.42,4.93,2.69,7.94,.27,3.01,.04,6.17-.67,9.49-1.44,7-3.88,12.33-7.33,16.01-3.45,3.68-8.01,6.15-13.66,7.4v.27c3.5,.54,6.12,1.48,7.87,2.83s2.91,3.05,3.5,5.11c.58,2.06,.74,4.44,.47,7.13-.27,2.69-.72,5.65-1.35,8.88-.9,4.84-1.57,8.63-2.02,11.37-.45,2.74-.67,4.87-.67,6.39,0,1.44,.2,2.45,.61,3.03,.4,.58,.96,1.06,1.68,1.41l-.13,1.21h-24.35c-.63-1.61-.81-3.9-.54-6.86,.27-2.96,.99-7.18,2.15-12.65,.81-4.12,1.32-7.51,1.55-10.16,.22-2.64,.13-4.71-.27-6.19s-1.14-2.49-2.22-3.03c-1.08-.54-2.51-.81-4.31-.81h-8.61l-8.21,39.69h-22.61l19.91-96.07Zm14.13,40.5h7c2.24,0,4.19-.38,5.85-1.14,1.66-.76,3.07-1.75,4.24-2.96,1.16-1.21,2.08-2.56,2.76-4.04s1.14-2.94,1.41-4.37c.72-3.59,.47-6.5-.74-8.75-1.21-2.24-4.06-3.36-8.54-3.36h-6.86l-5.11,24.62Z"/>
    <path class="cls-1" d="M348.3,56.96h22.61l-19.92,96.07h-22.61l19.92-96.07Z"/>
    <path class="cls-1" d="M385.31,56.96h33.5c5.56,0,10.2,.79,13.93,2.35,3.72,1.57,6.5,4.1,8.34,7.6,1.84,3.5,2.78,8.12,2.83,13.86,.04,5.74-.79,12.78-2.49,21.12-1.79,8.7-3.75,16.26-5.85,22.67-2.11,6.42-4.82,11.73-8.14,15.95-3.32,4.22-7.45,7.36-12.38,9.42-4.93,2.06-11.08,3.09-18.43,3.09h-31.22l19.91-96.07Zm6.06,79.39h6.05c2.69,0,5-.36,6.93-1.08,1.93-.72,3.68-2.24,5.25-4.58,1.57-2.33,3.05-5.67,4.44-10.02,1.39-4.35,2.85-10.11,4.37-17.29,1.16-5.83,2-10.67,2.49-14.53,.49-3.86,.49-6.91,0-9.15-.49-2.24-1.55-3.81-3.16-4.71-1.62-.9-3.95-1.35-7-1.35h-6.32l-13.05,62.7Z"/>
    <path class="cls-1" d="M462.54,56.96h55.57l-3.77,18.3h-32.97l-4.04,19.24h30.95l-3.77,18.3h-30.95l-4.58,21.93h34.45l-3.77,18.3h-57.05l19.91-96.07Z"/>
    <path class="cls-1" d="M534.66,123.7l-.67,3.36c-.45,1.97-.67,3.68-.67,5.11,0,2.33,.56,4.19,1.68,5.58,1.12,1.39,3.16,2.09,6.12,2.09,1.97,0,3.68-.34,5.11-1.01,1.43-.67,2.67-1.55,3.7-2.62,1.03-1.08,1.86-2.31,2.49-3.7,.63-1.39,1.08-2.76,1.35-4.1,.54-2.6,.4-4.73-.4-6.39-.81-1.66-2.06-3.09-3.77-4.31-1.71-1.21-3.7-2.26-5.99-3.16-2.29-.9-4.6-1.88-6.93-2.96-2.33-1.08-4.6-2.31-6.79-3.7-2.2-1.39-4.04-3.16-5.52-5.32-1.48-2.15-2.51-4.78-3.09-7.87-.58-3.09-.43-6.88,.47-11.37,.81-3.86,2.11-7.49,3.9-10.9,1.79-3.41,4.21-6.39,7.27-8.95,3.05-2.56,6.73-4.6,11.03-6.12,4.31-1.52,9.37-2.29,15.21-2.29s10.29,.67,13.93,2.02c3.63,1.35,6.41,3.21,8.34,5.58,1.93,2.38,3.09,5.16,3.5,8.34,.4,3.19,.2,6.62-.61,10.29l-.4,2.29h-21.8c.99-4.84,1.03-8.21,.13-10.09-.81-2.24-2.83-3.36-6.06-3.36-6.01,0-9.73,3.45-11.17,10.36-.72,3.32-.27,5.94,1.35,7.87,1.61,1.93,3.81,3.57,6.59,4.91,2.78,1.35,5.83,2.67,9.15,3.97,3.32,1.3,6.28,3.01,8.88,5.11,2.6,2.11,4.58,4.89,5.92,8.34,1.34,3.45,1.43,8.01,.27,13.66-2.33,10.95-6.84,18.77-13.52,23.48-6.68,4.71-15.23,7.06-25.63,7.06-4.04,0-7.89-.36-11.57-1.08-3.68-.72-6.8-2.02-9.35-3.9-2.56-1.88-4.4-4.44-5.52-7.67-1.12-3.23-1.14-7.35-.07-12.38l1.35-6.19h21.8Z"/>
  </g>
  <g>
    <path d="M29.91,58.07h55.57l-3.77,18.3H48.75l-4.04,19.24h30.95l-3.77,18.3h-30.95l-8.34,40.23H10L29.91,58.07Z"/>
    <path d="M95.04,58.07h22.61l-19.92,96.07h-22.61l19.92-96.07Z"/>
    <path d="M162.72,58.07h22.61l-13.99,67.14c-.9,4.49-2.22,8.61-3.97,12.38s-4.06,7.02-6.93,9.76c-2.87,2.74-6.35,4.87-10.43,6.39-4.08,1.52-8.9,2.29-14.46,2.29-10.14,0-16.98-2.31-20.52-6.93-3.54-4.62-4.42-11.15-2.62-19.58l1.21-5.92h20.99l-.94,4.17c-.36,1.61-.65,3.21-.88,4.78-.22,1.57-.22,2.98,0,4.24,.22,1.26,.76,2.27,1.62,3.03,.85,.76,2.17,1.14,3.97,1.14,1.62,0,2.98-.4,4.1-1.21,1.12-.81,2.06-1.91,2.83-3.3,.76-1.39,1.41-3.05,1.95-4.98,.54-1.93,1.03-4.01,1.48-6.26l13.99-67.14Z"/>
    <path d="M199.72,58.07h22.61l-19.92,96.07h-22.61l19.92-96.07Z"/>
  </g>
</svg>